<svg width="500" height="200" viewBox="0 0 500 200" fill="none" xmlns="http://www.w3.org/2000/svg">
<rect x="50.5" y="0.5" width="399" height="99" rx="4.5" fill="white" fill-opacity="0.28" stroke="white"/>
<path d="M151.727 73.6364C148.606 73.6364 145.848 73.0833 143.455 71.9773C141.076 70.8561 139.22 69.3182 137.886 67.3636C136.553 65.3939 135.894 63.1515 135.909 60.6364C135.894 58.6667 136.28 56.8485 137.068 55.1818C137.856 53.5 138.932 52.0985 140.295 50.9773C141.674 49.8409 143.212 49.1212 144.909 48.8182V48.5455C142.682 47.9697 140.909 46.7197 139.591 44.7955C138.273 42.8561 137.621 40.6515 137.636 38.1818C137.621 35.8182 138.22 33.7045 139.432 31.8409C140.644 29.9773 142.311 28.5076 144.432 27.4318C146.568 26.3561 149 25.8182 151.727 25.8182C154.424 25.8182 156.833 26.3561 158.955 27.4318C161.076 28.5076 162.742 29.9773 163.955 31.8409C165.182 33.7045 165.803 35.8182 165.818 38.1818C165.803 40.6515 165.129 42.8561 163.795 44.7955C162.477 46.7197 160.727 47.9697 158.545 48.5455V48.8182C160.227 49.1212 161.742 49.8409 163.091 50.9773C164.439 52.0985 165.515 53.5 166.318 55.1818C167.121 56.8485 167.53 58.6667 167.545 60.6364C167.53 63.1515 166.848 65.3939 165.5 67.3636C164.167 69.3182 162.311 70.8561 159.932 71.9773C157.568 73.0833 154.833 73.6364 151.727 73.6364ZM151.727 68.6364C153.833 68.6364 155.652 68.2955 157.182 67.6136C158.712 66.9318 159.894 65.9697 160.727 64.7273C161.561 63.4848 161.985 62.0303 162 60.3636C161.985 58.6061 161.53 57.053 160.636 55.7045C159.742 54.3561 158.523 53.2955 156.977 52.5227C155.447 51.75 153.697 51.3636 151.727 51.3636C149.742 51.3636 147.97 51.75 146.409 52.5227C144.864 53.2955 143.644 54.3561 142.75 55.7045C141.871 57.053 141.439 58.6061 141.455 60.3636C141.439 62.0303 141.841 63.4848 142.659 64.7273C143.492 65.9697 144.682 66.9318 146.227 67.6136C147.773 68.2955 149.606 68.6364 151.727 68.6364ZM151.727 46.5455C153.394 46.5455 154.871 46.2121 156.159 45.5455C157.462 44.8788 158.485 43.947 159.227 42.75C159.97 41.553 160.348 40.1515 160.364 38.5455C160.348 36.9697 159.977 35.5985 159.25 34.4318C158.523 33.25 157.515 32.3409 156.227 31.7045C154.939 31.053 153.439 30.7273 151.727 30.7273C149.985 30.7273 148.462 31.053 147.159 31.7045C145.856 32.3409 144.848 33.25 144.136 34.4318C143.424 35.5985 143.076 36.9697 143.091 38.5455C143.076 40.1515 143.432 41.553 144.159 42.75C144.902 43.947 145.924 44.8788 147.227 45.5455C148.53 46.2121 150.03 46.5455 151.727 46.5455ZM189.983 78.8182V20.6364H193.71V78.8182H189.983ZM202.528 38.0909C202.256 35.7879 201.15 34 199.21 32.7273C197.271 31.4545 194.892 30.8182 192.074 30.8182C190.013 30.8182 188.21 31.1515 186.665 31.8182C185.134 32.4848 183.938 33.4015 183.074 34.5682C182.225 35.7348 181.801 37.0606 181.801 38.5455C181.801 39.7879 182.097 40.8561 182.688 41.75C183.294 42.6288 184.066 43.3636 185.006 43.9545C185.945 44.5303 186.93 45.0076 187.96 45.3864C188.991 45.75 189.938 46.0455 190.801 46.2727L195.528 47.5455C196.741 47.8636 198.089 48.303 199.574 48.8636C201.074 49.4242 202.506 50.1894 203.869 51.1591C205.248 52.1136 206.384 53.3409 207.278 54.8409C208.172 56.3409 208.619 58.1818 208.619 60.3636C208.619 62.8788 207.96 65.1515 206.642 67.1818C205.339 69.2121 203.43 70.8258 200.915 72.0227C198.415 73.2197 195.377 73.8182 191.801 73.8182C188.468 73.8182 185.581 73.2803 183.142 72.2045C180.718 71.1288 178.809 69.6288 177.415 67.7045C176.036 65.7803 175.256 63.5455 175.074 61H180.892C181.044 62.7576 181.634 64.2121 182.665 65.3636C183.71 66.5 185.028 67.3485 186.619 67.9091C188.225 68.4545 189.953 68.7273 191.801 68.7273C193.953 68.7273 195.884 68.3788 197.597 67.6818C199.309 66.9697 200.665 65.9848 201.665 64.7273C202.665 63.4545 203.165 61.9697 203.165 60.2727C203.165 58.7273 202.733 57.4697 201.869 56.5C201.006 55.5303 199.869 54.7424 198.46 54.1364C197.051 53.5303 195.528 53 193.892 52.5455L188.165 50.9091C184.528 49.8636 181.65 48.3712 179.528 46.4318C177.407 44.4924 176.347 41.9545 176.347 38.8182C176.347 36.2121 177.051 33.9394 178.46 32C179.884 30.0455 181.794 28.5303 184.188 27.4545C186.597 26.3636 189.286 25.8182 192.256 25.8182C195.256 25.8182 197.922 26.3561 200.256 27.4318C202.589 28.4924 204.438 29.947 205.801 31.7955C207.18 33.6439 207.907 35.7424 207.983 38.0909H202.528ZM267.614 73.6364C264.947 73.6364 262.545 73.1061 260.409 72.0455C258.273 70.9848 256.561 69.5303 255.273 67.6818C253.985 65.8333 253.28 63.7273 253.159 61.3636H258.614C258.826 63.4697 259.78 65.2121 261.477 66.5909C263.189 67.9545 265.235 68.6364 267.614 68.6364C269.523 68.6364 271.22 68.1894 272.705 67.2955C274.205 66.4015 275.379 65.1742 276.227 63.6136C277.091 62.0379 277.523 60.2576 277.523 58.2727C277.523 56.2424 277.076 54.4318 276.182 52.8409C275.303 51.2348 274.091 49.9697 272.545 49.0455C271 48.1212 269.235 47.6515 267.25 47.6364C265.826 47.6212 264.364 47.8409 262.864 48.2955C261.364 48.7348 260.129 49.303 259.159 50L253.886 49.3636L256.705 26.4545H280.886V31.4545H261.432L259.795 45.1818H260.068C261.023 44.4242 262.22 43.7955 263.659 43.2955C265.098 42.7955 266.598 42.5455 268.159 42.5455C271.008 42.5455 273.545 43.2273 275.773 44.5909C278.015 45.9394 279.773 47.7879 281.045 50.1364C282.333 52.4848 282.977 55.1667 282.977 58.1818C282.977 61.1515 282.311 63.803 280.977 66.1364C279.659 68.4545 277.841 70.2879 275.523 71.6364C273.205 72.9697 270.568 73.6364 267.614 73.6364ZM307.188 73.6364C303.763 73.6364 300.847 72.7045 298.438 70.8409C296.028 68.9621 294.188 66.2424 292.915 62.6818C291.642 59.1061 291.006 54.7879 291.006 49.7273C291.006 44.697 291.642 40.4015 292.915 36.8409C294.203 33.2652 296.051 30.5379 298.46 28.6591C300.884 26.7651 303.794 25.8182 307.188 25.8182C310.581 25.8182 313.483 26.7651 315.892 28.6591C318.316 30.5379 320.165 33.2652 321.438 36.8409C322.725 40.4015 323.369 44.697 323.369 49.7273C323.369 54.7879 322.733 59.1061 321.46 62.6818C320.188 66.2424 318.347 68.9621 315.938 70.8409C313.528 72.7045 310.612 73.6364 307.188 73.6364ZM307.188 68.6364C310.581 68.6364 313.218 67 315.097 63.7273C316.975 60.4545 317.915 55.7879 317.915 49.7273C317.915 45.697 317.483 42.2652 316.619 39.4318C315.771 36.5985 314.544 34.4394 312.938 32.9545C311.347 31.4697 309.43 30.7273 307.188 30.7273C303.824 30.7273 301.195 32.3864 299.301 35.7045C297.407 39.0076 296.46 43.6818 296.46 49.7273C296.46 53.7576 296.884 57.1818 297.733 60C298.581 62.8182 299.801 64.9621 301.392 66.4318C302.998 67.9015 304.93 68.6364 307.188 68.6364ZM345.733 78.8182V20.6364H349.46V78.8182H345.733ZM358.278 38.0909C358.006 35.7879 356.9 34 354.96 32.7273C353.021 31.4545 350.642 30.8182 347.824 30.8182C345.763 30.8182 343.96 31.1515 342.415 31.8182C340.884 32.4848 339.688 33.4015 338.824 34.5682C337.975 35.7348 337.551 37.0606 337.551 38.5455C337.551 39.7879 337.847 40.8561 338.438 41.75C339.044 42.6288 339.816 43.3636 340.756 43.9545C341.695 44.5303 342.68 45.0076 343.71 45.3864C344.741 45.75 345.688 46.0455 346.551 46.2727L351.278 47.5455C352.491 47.8636 353.839 48.303 355.324 48.8636C356.824 49.4242 358.256 50.1894 359.619 51.1591C360.998 52.1136 362.134 53.3409 363.028 54.8409C363.922 56.3409 364.369 58.1818 364.369 60.3636C364.369 62.8788 363.71 65.1515 362.392 67.1818C361.089 69.2121 359.18 70.8258 356.665 72.0227C354.165 73.2197 351.127 73.8182 347.551 73.8182C344.218 73.8182 341.331 73.2803 338.892 72.2045C336.468 71.1288 334.559 69.6288 333.165 67.7045C331.786 65.7803 331.006 63.5455 330.824 61H336.642C336.794 62.7576 337.384 64.2121 338.415 65.3636C339.46 66.5 340.778 67.3485 342.369 67.9091C343.975 68.4545 345.703 68.7273 347.551 68.7273C349.703 68.7273 351.634 68.3788 353.347 67.6818C355.059 66.9697 356.415 65.9848 357.415 64.7273C358.415 63.4545 358.915 61.9697 358.915 60.2727C358.915 58.7273 358.483 57.4697 357.619 56.5C356.756 55.5303 355.619 54.7424 354.21 54.1364C352.801 53.5303 351.278 53 349.642 52.5455L343.915 50.9091C340.278 49.8636 337.4 48.3712 335.278 46.4318C333.157 44.4924 332.097 41.9545 332.097 38.8182C332.097 36.2121 332.801 33.9394 334.21 32C335.634 30.0455 337.544 28.5303 339.938 27.4545C342.347 26.3636 345.036 25.8182 348.006 25.8182C351.006 25.8182 353.672 26.3561 356.006 27.4318C358.339 28.4924 360.188 29.947 361.551 31.7955C362.93 33.6439 363.657 35.7424 363.733 38.0909H358.278Z" fill="white"/>
<line x1="268.939" y1="86.9393" x2="345.939" y2="9.93934" stroke="#FF0000" stroke-width="3"/>
<rect x="0.5" y="100.5" width="499" height="99" rx="4.5" fill="#7BC4FD" stroke="#01243E"/>
<path d="M185.128 165L175.781 152.599H173.679V165H167.528V135.909H173.679V147.528H174.915L184.574 135.909H192.23L180.881 149.403L192.756 165H185.128ZM198.988 165.398V160.398H200.565C201.351 160.398 201.985 160.303 202.468 160.114C202.951 159.915 203.335 159.626 203.619 159.247C203.912 158.859 204.158 158.376 204.357 157.798L204.712 156.847L194.144 135.909H200.508L207.354 150.227L213.079 135.909H219.357L209.329 159.29C208.846 160.369 208.273 161.373 207.61 162.301C206.957 163.229 206.119 163.977 205.096 164.545C204.073 165.114 202.766 165.398 201.175 165.398H198.988ZM247.415 135.909V165H241.335V140.909H229.574V165H223.494V135.909H247.415ZM253.271 135.909H259.407V154.205H259.648L272.219 135.909H277.603V165H271.452V146.69H271.239L258.597 165H253.271V135.909ZM281.577 140.98V135.909H305.469V140.98H296.562V165H290.483V140.98H281.577ZM313.452 146.662H320.384C322.694 146.662 324.683 147.036 326.349 147.784C328.026 148.523 329.318 149.569 330.227 150.923C331.136 152.277 331.586 153.873 331.577 155.71C331.586 157.538 331.136 159.152 330.227 160.554C329.318 161.946 328.026 163.035 326.349 163.821C324.683 164.607 322.694 165 320.384 165H309.517V135.909H315.653V160.057H320.384C321.491 160.057 322.424 159.858 323.182 159.46C323.939 159.053 324.512 158.518 324.901 157.855C325.298 157.183 325.492 156.449 325.483 155.653C325.492 154.498 325.057 153.523 324.176 152.727C323.305 151.922 322.041 151.52 320.384 151.52H313.452V146.662Z" fill="#01243E"/>
</svg>
